<svg width="64" height="64" viewBox="0 0 64 64" fill="none" xmlns="http://www.w3.org/2000/svg">
  <!-- Dark background circle for visibility -->
  <circle cx="32" cy="32" r="30" fill="#0a0a0a" stroke="#00ffff" stroke-width="2"/>

  <!-- Stylized "S" lettermark for SEVER -->
  <path d="M 40 18 C 40 18 34 14 26 18 C 18 22 18 26 18 26 C 18 26 18 30 26 32 C 34 34 38 34 38 34 C 38 34 46 36 46 42 C 46 48 40 52 32 52 C 24 52 18 48 18 48"
        stroke="#00ffff"
        stroke-width="4.5"
        stroke-linecap="round"
        fill="none"/>

  <!-- Inner glow effect for depth -->
  <path d="M 40 18 C 40 18 34 14 26 18 C 18 22 18 26 18 26 C 18 26 18 30 26 32 C 34 34 38 34 38 34 C 38 34 46 36 46 42 C 46 48 40 52 32 52 C 24 52 18 48 18 48"
        stroke="#00ffff"
        stroke-width="7"
        stroke-linecap="round"
        fill="none"
        opacity="0.25"/>

  <!-- Circuit nodes for tech aesthetic -->
  <circle cx="26" cy="19" r="2.2" fill="#00ffff">
    <animate attributeName="opacity" values="0.5;1;0.5" dur="2s" repeatCount="indefinite"/>
  </circle>
  <circle cx="32" cy="32" r="2.2" fill="#00ffff">
    <animate attributeName="opacity" values="0.5;1;0.5" dur="2s" begin="0.7s" repeatCount="indefinite"/>
  </circle>
  <circle cx="32" cy="50" r="2.2" fill="#00ffff">
    <animate attributeName="opacity" values="0.5;1;0.5" dur="2s" begin="1.4s" repeatCount="indefinite"/>
  </circle>

  <!-- Tech corner dots -->
  <circle cx="8" cy="8" r="1.5" fill="#00ffff" opacity="0.4"/>
  <circle cx="56" cy="8" r="1.5" fill="#00ffff" opacity="0.4"/>
  <circle cx="8" cy="56" r="1.5" fill="#00ffff" opacity="0.4"/>
  <circle cx="56" cy="56" r="1.5" fill="#00ffff" opacity="0.4"/>
</svg>