<svg width="32" height="32" viewBox="0 0 32 32" fill="none" xmlns="http://www.w3.org/2000/svg">
  <!-- Background circle -->
  <circle cx="16" cy="16" r="15" fill="#0a0a0a" stroke="#00ffff" stroke-width="1"/>

  <!-- Network nodes and connections -->
  <!-- Center node -->
  <circle cx="16" cy="16" r="2.5" fill="#00ffff"/>

  <!-- Outer nodes -->
  <circle cx="16" cy="8" r="1.8" fill="#00ffff"/>
  <circle cx="24" cy="16" r="1.8" fill="#00ffff"/>
  <circle cx="16" cy="24" r="1.8" fill="#00ffff"/>
  <circle cx="8" cy="16" r="1.8" fill="#00ffff"/>

  <!-- Corner nodes -->
  <circle cx="11" cy="11" r="1.5" fill="#00ffff" opacity="0.7"/>
  <circle cx="21" cy="11" r="1.5" fill="#00ffff" opacity="0.7"/>
  <circle cx="21" cy="21" r="1.5" fill="#00ffff" opacity="0.7"/>
  <circle cx="11" cy="21" r="1.5" fill="#00ffff" opacity="0.7"/>

  <!-- Connection lines -->
  <line x1="16" y1="16" x2="16" y2="8" stroke="#00ffff" stroke-width="1.5" opacity="0.6"/>
  <line x1="16" y1="16" x2="24" y2="16" stroke="#00ffff" stroke-width="1.5" opacity="0.6"/>
  <line x1="16" y1="16" x2="16" y2="24" stroke="#00ffff" stroke-width="1.5" opacity="0.6"/>
  <line x1="16" y1="16" x2="8" y2="16" stroke="#00ffff" stroke-width="1.5" opacity="0.6"/>
  <line x1="16" y1="16" x2="11" y2="11" stroke="#00ffff" stroke-width="1" opacity="0.4"/>
  <line x1="16" y1="16" x2="21" y2="11" stroke="#00ffff" stroke-width="1" opacity="0.4"/>
  <line x1="16" y1="16" x2="21" y2="21" stroke="#00ffff" stroke-width="1" opacity="0.4"/>
  <line x1="16" y1="16" x2="11" y2="21" stroke="#00ffff" stroke-width="1" opacity="0.4"/>
</svg>
